<?xml version="1.0" encoding="utf-8"?>
<!-- Generator: Adobe Illustrator 19.1.1, SVG Export Plug-In . SVG Version: 6.00 Build 0)  -->
<svg version="1.1" id="Camada_1" xmlns="http://www.w3.org/2000/svg" xmlns:xlink="http://www.w3.org/1999/xlink" x="0px" y="0px"
	 viewBox="-461 263.5 36.1 35.5" style="enable-background:new -461 263.5 36.1 35.5;" xml:space="preserve">
<style type="text/css">
	.st0{fill:url(#SVGID_1_);stroke:url(#SVGID_2_);stroke-width:2;stroke-miterlimit:10;}
</style>
<g>
	<g>
		<g>
			<g>
				<linearGradient id="SVGID_1_" gradientUnits="userSpaceOnUse" x1="-453.025" y1="281.3875" x2="-432.275" y2="281.3875">
					<stop  offset="0" style="stop-color:#7FFDEC"/>
					<stop  offset="1" style="stop-color:#73FF9F"/>
				</linearGradient>
				<linearGradient id="SVGID_2_" gradientUnits="userSpaceOnUse" x1="-454.025" y1="281.3875" x2="-431.275" y2="281.3875">
					<stop  offset="0" style="stop-color:#7FFDEC"/>
					<stop  offset="1" style="stop-color:#73FF9F"/>
				</linearGradient>
				<path class="st0" d="M-445.6,287.9c-1.1,0-2.1-0.5-2.9-1.1l-4.3-4.3c-0.3-0.3-0.3-0.8,0-1.1c0.3-0.3,0.8-0.3,1.1,0l4.3,4.3
					c0.5,0.5,1.1,0.6,1.8,0.6l0,0c0.6,0,1.3-0.3,1.8-0.6l10.2-10.6c0.3-0.3,0.8-0.3,1.1,0c0.3,0.3,0.3,0.8,0,1.1l-10.2,10.6
					C-443.4,287.4-444.5,287.9-445.6,287.9L-445.6,287.9z"/>
			</g>
		</g>
	</g>
</g>
</svg>
