<?xml version="1.0" encoding="utf-8"?>
<!-- Generator: Adobe Illustrator 19.1.1, SVG Export Plug-In . SVG Version: 6.00 Build 0)  -->
<svg version="1.1" id="Camada_1" xmlns="http://www.w3.org/2000/svg" xmlns:xlink="http://www.w3.org/1999/xlink" x="0px" y="0px"
	 viewBox="0 0 36.1 35.5" style="enable-background:new 0 0 36.1 35.5;" xml:space="preserve">
<style type="text/css">
	.st0{fill:#444444;stroke:#444444;stroke-width:2;stroke-miterlimit:10;}
</style>
<g>
	<g>
		<g>
			<g>
				<path class="st0" d="M15.4,25.4c-1.1,0-2.1-0.5-2.9-1.1L8.2,20c-0.3-0.3-0.3-0.8,0-1.1c0.3-0.3,0.8-0.3,1.1,0l4.3,4.3
					c0.5,0.5,1.1,0.6,1.8,0.6l0,0c0.6,0,1.3-0.3,1.8-0.6l10.2-10.6c0.3-0.3,0.8-0.3,1.1,0s0.3,0.8,0,1.1L18.3,24.3
					C17.6,24.9,16.5,25.4,15.4,25.4L15.4,25.4z"/>
			</g>
		</g>
	</g>
</g>
</svg>
