<?xml version="1.0" encoding="utf-8"?>
<!-- Generator: Adobe Illustrator 19.1.1, SVG Export Plug-In . SVG Version: 6.00 Build 0)  -->
<svg version="1.1" id="Camada_1" xmlns="http://www.w3.org/2000/svg" xmlns:xlink="http://www.w3.org/1999/xlink" x="0px" y="0px"
	 viewBox="0 0 36.1 35.5" style="enable-background:new 0 0 36.1 35.5;" xml:space="preserve">
<style type="text/css">
	.st0{fill:#444444;}
</style>
<g>
	<g>
		<g>
			<g>
				<path class="st0" d="M27.4,15.3c-0.2,0-0.5,0-0.6-0.2L21.7,10c-0.2-0.2-0.2-0.3-0.2-0.6c0-0.3,0.2-0.5,0.2-0.6l2.1-2.1
					c1.3-1.3,3.4-1.3,4.5,0l1.8,1.8c1.3,1.3,1.3,3.4,0,4.5L28,15.1C27.8,15.3,27.5,15.3,27.4,15.3z M23.4,9.3l4,4l1.6-1.6
					c0.6-0.6,0.6-1.6,0-2.2l-1.8-1.8c-0.6-0.6-1.6-0.6-2.2,0L23.4,9.3z"/>
			</g>
			<g>
				<path class="st0" d="M7.2,30.3c-0.2,0-0.5-0.2-0.6-0.2c-0.2-0.3-0.2-0.5-0.2-0.8l1-6.1c0-0.2,0.2-0.3,0.2-0.5L21.7,8.6
					c0.3-0.3,0.8-0.3,1.1,0l5.1,5.1c0.2,0.2,0.2,0.3,0.2,0.6c0,0.3-0.2,0.5-0.2,0.6L13.8,29c-0.2,0.2-0.3,0.2-0.5,0.2L7.2,30.3
					C7.4,30.3,7.2,30.3,7.2,30.3z M9,23.7l-0.8,4.8l4.8-0.8l13.3-13.3l-4-4L9,23.7z"/>
			</g>
			<g>
				<path class="st0" d="M14.7,27.9c-0.2,0-0.5,0-0.6-0.2L9,22.6c-0.3-0.3-0.3-0.8,0-1.1c0.3-0.3,0.8-0.3,1.1,0l5.1,5.1
					c0.3,0.3,0.3,0.8,0,1.1C15.2,27.7,15,27.9,14.7,27.9z"/>
			</g>
		</g>
	</g>
</g>
</svg>
