<?xml version="1.0" encoding="utf-8"?>
<!-- Generator: Adobe Illustrator 19.1.1, SVG Export Plug-In . SVG Version: 6.00 Build 0)  -->
<svg version="1.1" id="Camada_1" xmlns="http://www.w3.org/2000/svg" xmlns:xlink="http://www.w3.org/1999/xlink" x="0px" y="0px"
	 viewBox="-461 263.5 36.1 35.5" style="enable-background:new -461 263.5 36.1 35.5;" xml:space="preserve">
<style type="text/css">
	.st0{fill:url(#SVGID_1_);}
	.st1{fill:url(#SVGID_2_);}
	.st2{fill:none;stroke:#FFFDFF;stroke-width:3;stroke-miterlimit:10;}
</style>
<g>
	<g>
		<g>
			<g>
				<linearGradient id="SVGID_1_" gradientUnits="userSpaceOnUse" x1="-439.4875" y1="273.775" x2="-429.9125" y2="273.775">
					<stop  offset="0" style="stop-color:#7FFDEC"/>
					<stop  offset="1" style="stop-color:#73FF9F"/>
				</linearGradient>
				<path class="st0" d="M-433.6,278.6c-0.2,0-0.5,0-0.6-0.2l-5.1-5.1c-0.2-0.2-0.2-0.3-0.2-0.6c0-0.3,0.2-0.5,0.2-0.6l2.1-2.1
					c1.3-1.3,3.4-1.3,4.5,0l1.8,1.8c1.3,1.3,1.3,3.4,0,4.5l-2.1,2.1C-433.2,278.6-433.5,278.6-433.6,278.6z M-437.6,272.6l4,4l0,0
					c-0.7-0.7-1.1-1.1-1.7-1.7l-1.8-1.8c-0.6-0.6-1.1,2.1,0,0L-437.6,272.6z"/>
			</g>
			<g>
				<linearGradient id="SVGID_2_" gradientUnits="userSpaceOnUse" x1="-454.6" y1="282.8375" x2="-432.9" y2="282.8375">
					<stop  offset="0" style="stop-color:#7FFDEC"/>
					<stop  offset="1" style="stop-color:#73FF9F"/>
				</linearGradient>
				<path class="st1" d="M-453.8,293.8c-0.2,0-0.5-0.2-0.6-0.2c-0.2-0.3-0.2-0.5-0.2-0.8l1-6.1c0-0.2,0.2-0.3,0.2-0.5l14.1-14.1
					c0.3-0.3,0.8-0.3,1.1,0l5.1,5.1c0.2,0.2,0.2,0.3,0.2,0.6c0,0.3-0.2,0.5-0.2,0.6l-14.1,14.1c-0.2,0.2-0.3,0.2-0.5,0.2
					L-453.8,293.8C-453.6,293.8-453.8,293.8-453.8,293.8z M-448,291.2l-4.8,0.8L-448,291.2l13.3-13.3l0,0L-448,291.2z"/>
			</g>
		</g>
	</g>
	<line class="st2" x1="-441.2" y1="272.7" x2="-433.6" y2="280.5"/>
</g>
</svg>
